<svg version="1.2" xmlns="http://www.w3.org/2000/svg" viewBox="0 0 130 130" width="130" height="130"><style>.a{fill:#351b6f}.b{fill:#faa61a}.c{fill:#ef4124}.d{fill:#62bb46}.e{fill:#b8292f}.f{fill:#3c5daa}.g{fill:#007f5b}.h{fill:#f173ac}.i{fill:#00aee6}.j{fill:#a70050}</style><path class="a" d="m87.1 36.8l-20 20-3.3-3.3 20-20.1z"/><path class="b" d="m93.8 43.4l-20 20.1-3.4-3.4 20.1-20z"/><path class="c" d="m57.1 66.8l-20.1 20.1-3.3-3.4 20-20z"/><path class="d" d="m63.8 73.5l-20.1 20.1-3.3-3.4 20-20z"/><path class="e" d="m90.5 86.9l-20.1-20.1 3.4-3.3 20 20z"/><path class="f" d="m83.8 93.6l-20-20.1 3.3-3.3 20 20z"/><path class="g" d="m60.4 56.8l-20-20 3.3-3.4 20.1 20.1z"/><path class="h" d="m53.7 63.5l-20-20.1 3.3-3.3 20.1 20z"/><path class="d" d="m110.5 106.9l-10-10 3.4-3.3 10 10z"/><path class="a" d="m103.9 113.6l-10.1-10 3.4-3.4 10 10.1z"/><path class="c" d="m30.4 26.7l-10.1-10 3.4-3.3 10 10z"/><path class="a" d="m23.7 33.4l-10-10 3.3-3.3 10 10z"/><path class="e" d="m107.2 16.7l-10 10-3.4-3.3 10.1-10z"/><path class="g" d="m113.9 23.4l-10 10-3.4-3.3 10-10z"/><path class="g" d="m27 96.9l-10 10-3.3-3.3 10-10z"/><path class="i" d="m33.7 103.6l-10 10-3.4-3.3 10.1-10.1z"/><path class="b" d="m70.8 127.3h-4.7v-14.2h4.7z"/><path class="c" d="m61.4 127.3h-4.7v-14.2h4.7z"/><path class="d" d="m70.8 13.9h-4.7v-14.2h4.7z"/><path class="b" d="m61.4 13.9h-4.7v-14.2h4.7z"/><path class="h" d="m127.5 61.1h-14.1v-4.7h14.1z"/><path class="j" d="m127.5 70.6h-14.1v-4.7h14.1z"/><path class="f" d="m14.2 61.1h-14.2v-4.7h14.2z"/><path class="i" d="m14.2 70.6h-14.2v-4.7h14.2z"/></svg>