<?xml version="1.0" encoding="UTF-8" standalone="no"?>
<!DOCTYPE svg PUBLIC "-//W3C//DTD SVG 1.1//EN" "http://www.w3.org/Graphics/SVG/1.1/DTD/svg11.dtd">
<svg width="100%" height="100%" viewBox="0 0 40 26" version="1.1" xmlns="http://www.w3.org/2000/svg" xmlns:xlink="http://www.w3.org/1999/xlink" xml:space="preserve" xmlns:serif="http://www.serif.com/" style="fill-rule:evenodd;clip-rule:evenodd;stroke-linejoin:round;stroke-miterlimit:2;">
    <g transform="matrix(1,0,0,1,-1214.49,-583.349)">
        <g id="Mail" transform="matrix(1,3.69779e-32,1.2326e-32,1,655.193,199.849)">
            <path d="M600.284,382.516L558.316,382.516L558.316,410.484L600.284,410.484L600.284,382.516ZM572.3,398.591L574.504,400.796C575.791,402.082 577.546,402.784 579.3,402.784C581.171,402.784 582.809,402.082 584.096,400.796C584.096,400.796 586.3,398.591 586.3,398.591C586.3,398.591 594.225,406.516 594.225,406.516C594.225,406.516 564.375,406.516 564.375,406.516L572.3,398.591ZM588.388,396.503L596.316,388.575C596.316,388.575 596.316,404.509 596.316,404.509L588.388,396.503ZM570.209,396.5L562.284,404.425C562.284,404.425 562.284,388.575 562.284,388.575L570.209,396.5ZM582.004,398.705C581.288,399.42 580.334,399.816 579.3,399.816C578.266,399.816 577.311,399.42 576.596,398.704C576.596,398.704 564.375,386.484 564.375,386.484C564.375,386.484 594.137,386.484 594.137,386.484L582.004,398.705Z" style="fill:rgb(192,57,43);fill-rule:nonzero;"/>
        </g>
    </g>
</svg>
