<?xml version="1.0" encoding="UTF-8" standalone="no"?>
<!DOCTYPE svg PUBLIC "-//W3C//DTD SVG 1.1//EN" "http://www.w3.org/Graphics/SVG/1.1/DTD/svg11.dtd">
<svg width="100%" height="100%" viewBox="0 0 47 33" version="1.1" xmlns="http://www.w3.org/2000/svg" xmlns:xlink="http://www.w3.org/1999/xlink" xml:space="preserve" xmlns:serif="http://www.serif.com/" style="fill-rule:evenodd;clip-rule:evenodd;stroke-linejoin:round;stroke-miterlimit:2;">
    <g transform="matrix(1,0,0,1,-1269.18,-572.3)">
        <path d="M1309.55,604.83L1315.26,604.83L1315.26,589.575C1315.26,581.572 1304.18,576.246 1297.05,583.377L1295.44,581.919L1291.63,586.288C1293.27,587.365 1294.11,588.72 1294.13,590.361L1294.23,604.817L1299.86,604.857L1299.97,589.575C1299.97,584.689 1309.5,584.448 1309.5,589.719L1309.55,604.83ZM1284.53,590.797L1278.85,589.377L1278.78,604.857L1284.5,604.857L1284.53,590.797ZM1277.58,586.062L1286,588.076L1292.22,581.046C1291.98,579.629 1291.38,578.293 1290.36,577.052L1296.03,572.3L1280.79,574.115L1269.18,581.937L1271.08,581.937L1271.12,601.046L1273.03,601.046L1273.1,581.871L1276.96,581.904C1276.76,583.425 1276.99,584.805 1277.58,586.062Z" style="fill:rgb(250,166,26);"/>
    </g>
</svg>
