<?xml version="1.0" encoding="UTF-8" standalone="no"?>
<!DOCTYPE svg PUBLIC "-//W3C//DTD SVG 1.1//EN" "http://www.w3.org/Graphics/SVG/1.1/DTD/svg11.dtd">
<svg width="100%" height="100%" viewBox="0 0 33 47" version="1.1" xmlns="http://www.w3.org/2000/svg" xmlns:xlink="http://www.w3.org/1999/xlink" xml:space="preserve" xmlns:serif="http://www.serif.com/" style="fill-rule:evenodd;clip-rule:evenodd;stroke-linejoin:round;stroke-miterlimit:2;">
    <g transform="matrix(1,0,0,1,-1275.88,-618.603)">
        <g id="Caculator" transform="matrix(1.44006,1.95251e-31,-1.77501e-32,1.44006,1000.82,591.242)">
            <path d="M209.027,48.649C207.557,48.649 206.366,47.447 206.366,45.966C206.366,44.484 207.557,43.283 209.027,43.283C210.497,43.283 211.688,44.484 211.688,45.966C211.688,47.447 210.497,48.649 209.027,48.649ZM208.729,36.87C210.199,36.87 211.39,38.071 211.39,39.553C211.39,41.034 210.199,42.235 208.729,42.235C207.259,42.235 206.068,41.034 206.068,39.553C206.068,38.071 207.259,36.87 208.729,36.87ZM202.342,35.722C200.873,35.722 199.681,34.521 199.681,33.039C199.681,31.558 200.873,30.357 202.342,30.357C203.812,30.357 205.003,31.558 205.003,33.039C205.003,34.521 203.812,35.722 202.342,35.722ZM202.342,42.235C200.873,42.235 199.681,41.034 199.681,39.553C199.681,38.071 200.873,36.87 202.342,36.87C203.812,36.87 205.003,38.071 205.003,39.553C205.003,41.034 203.812,42.235 202.342,42.235ZM205.003,46.166C205.003,47.648 203.812,48.849 202.342,48.849L196.012,48.849C194.542,48.849 193.351,47.648 193.351,46.166C193.351,44.685 194.542,43.484 196.012,43.484L202.342,43.484C203.812,43.484 205.003,44.685 205.003,46.166ZM195.956,36.87C197.426,36.87 198.617,38.071 198.617,39.553C198.617,41.034 197.426,42.235 195.956,42.235C194.486,42.235 193.295,41.034 193.295,39.553C193.295,38.071 194.486,36.87 195.956,36.87ZM195.956,30.357C197.426,30.357 198.617,31.558 198.617,33.039C198.617,34.521 197.426,35.722 195.956,35.722C194.486,35.722 193.295,34.521 193.295,33.039C193.295,31.558 194.486,30.357 195.956,30.357ZM211.39,33.039C211.39,34.521 210.199,35.722 208.729,35.722C207.259,35.722 206.068,34.521 206.068,33.039C206.068,31.558 207.259,30.357 208.729,30.357C210.199,30.357 211.39,31.558 211.39,33.039ZM193.844,28.054L210.741,28.054L210.741,21.842L193.844,21.842L193.844,28.054ZM210.001,19L194.699,19C192.656,19 191,20.669 191,22.729L191,47.271C191,49.331 192.656,51 194.699,51L210.001,51C212.044,51 213.7,49.331 213.7,47.271L213.7,22.729C213.7,20.669 212.044,19 210.001,19Z" style="fill:rgb(90,184,63);"/>
        </g>
    </g>
</svg>
